<svg xmlns="http://www.w3.org/2000/svg" viewBox="0 0 326 76" width="326" height="76" role="img" aria-label="SHAIVI — Safety Meets Care"><g transform="translate(4 8) scale(0.9375)"><path fill="#d13d23" fill-rule="evenodd" d="M32 3.5 56.5 12.6 A1 1 0 0 1 57 13.5 V31.8 c0 8.4-3.4 15.3-8.6 20.3 C43.4 56.8 37.6 59.5 32 61 c-5.6-1.5-11.4-4.2-16.4-8.9 C10.4 47.1 7 40.2 7 31.8 V13.5 a1 1 0 0 1 .5-.9 ZM28.6 17.8 h6.8 a1.2 1.2 0 0 1 1.2 1.2 v7.6 h7.6 a1.2 1.2 0 0 1 1.2 1.2 v6.8 a1.2 1.2 0 0 1-1.2 1.2 h-7.6 v7.6 a1.2 1.2 0 0 1-1.2 1.2 h-6.8 a1.2 1.2 0 0 1-1.2-1.2 v-7.6 h-7.6 a1.2 1.2 0 0 1-1.2-1.2 v-6.8 a1.2 1.2 0 0 1 1.2-1.2 h7.6 v-7.6 a1.2 1.2 0 0 1 1.2-1.2 Z"/></g><path fill="#383332" transform="translate(84.000 0)" d="M18.496 -0.992L18.496 -0.992Q21.76 -0.928 25.376 -0.608Q28.992 -0.288 32.448 0.608L32.448 0.608L31.936 6.048Q29.184 5.984 25.568 5.888Q21.952 5.792 18.624 5.792L18.624 5.792Q16.576 5.792 15.136 5.92Q13.696 6.048 12.8 6.56Q11.904 7.072 11.488 8.128Q11.072 9.184 11.072 11.04L11.072 11.04Q11.072 13.92 12.256 15.136Q13.44 16.352 16.128 17.056L16.128 17.056L24.832 19.616Q30.08 21.216 32.064 24.256Q34.048 27.296 34.048 32.352L34.048 32.352Q34.048 36.128 33.152 38.56Q32.256 40.992 30.4 42.336Q28.544 43.68 25.536 44.256Q22.528 44.832 18.304 44.832L18.304 44.832Q16.128 44.832 12.32 44.576Q8.512 44.32 3.648 43.296L3.648 43.296L4.16 37.536Q7.936 37.664 10.496 37.76Q13.056 37.856 14.912 37.856Q16.768 37.856 18.368 37.856L18.368 37.856Q21.312 37.856 22.976 37.472Q24.64 37.088 25.312 35.872Q25.984 34.656 25.984 32.352L25.984 32.352Q25.984 30.368 25.504 29.248Q25.024 28.128 23.936 27.488Q22.848 26.848 21.12 26.4L21.12 26.4L12.096 23.648Q7.104 22.112 5.088 19.104Q3.072 16.096 3.072 11.04L3.072 11.04Q3.072 7.264 3.968 4.864Q4.864 2.464 6.72 1.216Q8.576 -0.032 11.488 -0.512Q14.4 -0.992 18.496 -0.992Z"/><path fill="#383332" transform="translate(124.320 0)" d="M4.928 -0.16L12.928 -0.16L12.928 44L4.928 44L4.928 -0.16ZM12.416 17.312L31.36 17.312L31.36 23.584L12.416 23.584L12.416 17.312ZM30.656 -0.16L38.656 -0.16L38.656 44L30.656 44L30.656 -0.16Z"/><path fill="#383332" transform="translate(171.424 0)" d="M16.576 -0.16L24.384 -0.16Q25.408 -0.16 26.176 0.416Q26.944 0.992 27.264 1.952L27.264 1.952L40.64 44L32.448 44L22.336 9.952Q22.08 8.928 21.824 7.904Q21.568 6.88 21.376 5.92L21.376 5.92L19.584 5.92Q19.392 6.88 19.136 7.904Q18.88 8.928 18.56 9.952L18.56 9.952L8.512 44L0.32 44L13.696 1.952Q13.952 0.992 14.752 0.416Q15.552 -0.16 16.576 -0.16L16.576 -0.16ZM9.088 25.12L31.808 25.12L31.808 31.392L9.088 31.392L9.088 25.12Z"/><path fill="#383332" transform="translate(215.904 0)" d="M4.928 -0.16L12.928 -0.16L12.928 44L4.928 44L4.928 -0.16Z"/><path fill="#383332" transform="translate(237.280 0)" d="M31.104 -0.16L39.36 -0.16L26.752 41.76Q26.432 42.72 25.664 43.36Q24.896 44 23.808 44L23.808 44L16.256 44Q15.168 44 14.4 43.36Q13.632 42.72 13.376 41.76L13.376 41.76L0.768 -0.16L9.024 -0.16L18.048 33.056Q18.368 34.272 18.688 35.488Q19.008 36.704 19.2 37.92L19.2 37.92L20.864 37.92Q21.184 36.704 21.472 35.456Q21.76 34.208 22.08 32.992L22.08 32.992L31.104 -0.16Z"/><path fill="#383332" transform="translate(280.928 0)" d="M4.928 -0.16L12.928 -0.16L12.928 44L4.928 44L4.928 -0.16Z"/><path fill="#383332" transform="translate(302.784 0)" d="M14.938 -2.643L16.57 -2.643Q17.126 -2.643 17.165 -2.048L17.165 -2.048L17.434 4.653L15.936 4.653L15.648 -1.414L15.456 -1.414L14.074 3.155Q13.958 3.674 13.421 3.674L13.421 3.674L12.365 3.674Q11.846 3.674 11.712 3.155L11.712 3.155L10.33 -1.414L10.118 -1.414L9.869 4.653L8.371 4.653L8.659 -2.048Q8.698 -2.643 9.254 -2.643L9.254 -2.643L10.81 -2.643Q11.078 -2.643 11.232 -2.518Q11.386 -2.394 11.443 -2.125L11.443 -2.125L12.576 1.562Q12.653 1.811 12.701 2.08Q12.749 2.349 12.806 2.598L12.806 2.598L12.979 2.598Q13.056 2.33 13.104 2.061Q13.152 1.792 13.229 1.542L13.229 1.542L14.323 -2.125Q14.438 -2.643 14.938 -2.643L14.938 -2.643ZM3.533 -2.643L5.184 -2.643L5.184 4.653L3.533 4.653L3.533 -2.643ZM1.152 -2.643L7.565 -2.643L7.565 -1.357L1.152 -1.357L1.152 -2.643Z"/><path fill="#643c8e" transform="translate(84.000 0)" d="M7.841 62.988L7.841 62.988Q7.841 63.972 7.36 64.683Q6.88 65.395 5.983 65.773Q5.086 66.151 3.845 66.151L3.845 66.151Q3.239 66.151 2.687 66.083Q2.134 66.015 1.646 65.883Q1.158 65.75 0.757 65.561L0.757 65.561L0.757 63.851Q1.43 64.146 2.263 64.384Q3.095 64.623 3.958 64.623L3.958 64.623Q4.662 64.623 5.128 64.437Q5.593 64.252 5.82 63.907Q6.047 63.563 6.047 63.101L6.047 63.101Q6.047 62.609 5.782 62.269Q5.517 61.928 4.984 61.644Q4.45 61.361 3.648 61.035L3.648 61.035Q3.103 60.816 2.607 60.536Q2.112 60.256 1.726 59.877Q1.34 59.499 1.116 58.98Q0.893 58.462 0.893 57.758L0.893 57.758Q0.893 56.82 1.343 56.154Q1.794 55.488 2.615 55.132Q3.436 54.776 4.533 54.776L4.533 54.776Q5.404 54.776 6.172 54.958Q6.94 55.139 7.682 55.472L7.682 55.472L7.107 56.933Q6.426 56.653 5.786 56.487Q5.146 56.32 4.48 56.32L4.48 56.32Q3.905 56.32 3.504 56.494Q3.103 56.668 2.895 56.982Q2.687 57.296 2.687 57.728L2.687 57.728Q2.687 58.212 2.925 58.541Q3.164 58.871 3.667 59.143Q4.17 59.416 4.965 59.749L4.965 59.749Q5.881 60.127 6.52 60.543Q7.16 60.959 7.5 61.538Q7.841 62.117 7.841 62.988Z"/><path fill="#643c8e" transform="translate(95.932 0)" d="M10.24 66L8.31 66L7.228 62.927L2.997 62.927L1.915 66L0 66L4.117 54.89L6.13 54.89L10.24 66ZM3.504 61.368L6.759 61.368L5.707 58.341Q5.646 58.144 5.532 57.785Q5.419 57.425 5.305 57.05Q5.192 56.676 5.116 56.418L5.116 56.418Q5.041 56.729 4.931 57.111Q4.821 57.493 4.719 57.826Q4.617 58.159 4.564 58.341L4.564 58.341L3.504 61.368Z"/><path fill="#643c8e" transform="translate(109.590 0)" d="M3.254 61.436L3.254 66L1.453 66L1.453 54.935L7.705 54.935L7.705 56.464L3.254 56.464L3.254 59.915L7.417 59.915L7.417 61.436L3.254 61.436Z"/><path fill="#643c8e" transform="translate(121.257 0)" d="M7.72 64.464L7.72 66L1.453 66L1.453 54.935L7.72 54.935L7.72 56.464L3.27 56.464L3.27 59.469L7.44 59.469L7.44 60.99L3.27 60.99L3.27 64.464L7.72 64.464Z"/><path fill="#643c8e" transform="translate(133.317 0)" d="M5.29 56.479L5.29 66L3.466 66L3.466 56.479L0.227 56.479L0.227 54.935L8.522 54.935L8.522 56.479L5.29 56.479Z"/><path fill="#643c8e" transform="translate(145.484 0)" d="M1.975 54.935L4.586 59.983L7.213 54.935L9.173 54.935L5.495 61.701L5.495 66L3.686 66L3.686 61.769L0 54.935L1.975 54.935Z"/><path fill="#643c8e" transform="translate(165.503 0)" d="M7.833 66L6.229 66L3.042 56.759L2.974 56.759Q2.997 57.069 3.027 57.607Q3.058 58.144 3.08 58.757Q3.103 59.37 3.103 59.93L3.103 59.93L3.103 66L1.453 66L1.453 54.935L4.004 54.935L7.069 63.767L7.114 63.767L10.285 54.935L12.828 54.935L12.828 66L11.095 66L11.095 59.839Q11.095 59.332 11.114 58.742Q11.133 58.152 11.16 57.622Q11.186 57.092 11.201 56.774L11.201 56.774L11.141 56.774L7.833 66Z"/><path fill="#643c8e" transform="translate(183.195 0)" d="M7.72 64.464L7.72 66L1.453 66L1.453 54.935L7.72 54.935L7.72 56.464L3.27 56.464L3.27 59.469L7.44 59.469L7.44 60.99L3.27 60.99L3.27 64.464L7.72 64.464Z"/><path fill="#643c8e" transform="translate(195.255 0)" d="M7.72 64.464L7.72 66L1.453 66L1.453 54.935L7.72 54.935L7.72 56.464L3.27 56.464L3.27 59.469L7.44 59.469L7.44 60.99L3.27 60.99L3.27 64.464L7.72 64.464Z"/><path fill="#643c8e" transform="translate(207.316 0)" d="M5.29 56.479L5.29 66L3.466 66L3.466 56.479L0.227 56.479L0.227 54.935L8.522 54.935L8.522 56.479L5.29 56.479Z"/><path fill="#643c8e" transform="translate(219.482 0)" d="M7.841 62.988L7.841 62.988Q7.841 63.972 7.36 64.683Q6.88 65.395 5.983 65.773Q5.086 66.151 3.845 66.151L3.845 66.151Q3.239 66.151 2.687 66.083Q2.134 66.015 1.646 65.883Q1.158 65.75 0.757 65.561L0.757 65.561L0.757 63.851Q1.43 64.146 2.263 64.384Q3.095 64.623 3.958 64.623L3.958 64.623Q4.662 64.623 5.128 64.437Q5.593 64.252 5.82 63.907Q6.047 63.563 6.047 63.101L6.047 63.101Q6.047 62.609 5.782 62.269Q5.517 61.928 4.984 61.644Q4.45 61.361 3.648 61.035L3.648 61.035Q3.103 60.816 2.607 60.536Q2.112 60.256 1.726 59.877Q1.34 59.499 1.116 58.98Q0.893 58.462 0.893 57.758L0.893 57.758Q0.893 56.82 1.343 56.154Q1.794 55.488 2.615 55.132Q3.436 54.776 4.533 54.776L4.533 54.776Q5.404 54.776 6.172 54.958Q6.94 55.139 7.682 55.472L7.682 55.472L7.107 56.933Q6.426 56.653 5.786 56.487Q5.146 56.32 4.48 56.32L4.48 56.32Q3.905 56.32 3.504 56.494Q3.103 56.668 2.895 56.982Q2.687 57.296 2.687 57.728L2.687 57.728Q2.687 58.212 2.925 58.541Q3.164 58.871 3.667 59.143Q4.17 59.416 4.965 59.749L4.965 59.749Q5.881 60.127 6.52 60.543Q7.16 60.959 7.5 61.538Q7.841 62.117 7.841 62.988Z"/><path fill="#643c8e" transform="translate(238.851 0)" d="M6.168 56.32L6.168 56.32Q5.374 56.32 4.749 56.608Q4.125 56.895 3.693 57.436Q3.262 57.978 3.035 58.746Q2.808 59.514 2.808 60.475L2.808 60.475Q2.808 61.762 3.171 62.689Q3.534 63.616 4.276 64.112Q5.018 64.607 6.153 64.607L6.153 64.607Q6.857 64.607 7.523 64.471Q8.189 64.335 8.9 64.1L8.9 64.1L8.9 65.644Q8.227 65.909 7.538 66.03Q6.849 66.151 5.949 66.151L5.949 66.151Q4.253 66.151 3.137 65.448Q2.021 64.744 1.472 63.465Q0.923 62.186 0.923 60.468L0.923 60.468Q0.923 59.211 1.271 58.167Q1.62 57.122 2.286 56.362Q2.952 55.601 3.932 55.189Q4.912 54.776 6.176 54.776L6.176 54.776Q7.008 54.776 7.814 54.962Q8.62 55.147 9.309 55.488L9.309 55.488L8.673 56.986Q8.098 56.714 7.47 56.517Q6.842 56.32 6.168 56.32Z"/><path fill="#643c8e" transform="translate(252.084 0)" d="M10.24 66L8.31 66L7.228 62.927L2.997 62.927L1.915 66L0 66L4.117 54.89L6.13 54.89L10.24 66ZM3.504 61.368L6.759 61.368L5.707 58.341Q5.646 58.144 5.532 57.785Q5.419 57.425 5.305 57.05Q5.192 56.676 5.116 56.418L5.116 56.418Q5.041 56.729 4.931 57.111Q4.821 57.493 4.719 57.826Q4.617 58.159 4.564 58.341L4.564 58.341L3.504 61.368Z"/><path fill="#643c8e" transform="translate(265.742 0)" d="M1.453 54.935L4.564 54.935Q5.994 54.935 6.929 55.283Q7.864 55.631 8.321 56.343Q8.779 57.054 8.779 58.152L8.779 58.152Q8.779 58.969 8.477 59.544Q8.174 60.119 7.682 60.498Q7.19 60.876 6.63 61.103L6.63 61.103L9.771 66L7.72 66L5.048 61.565L3.27 61.565L3.27 66L1.453 66L1.453 54.935ZM4.443 56.449L4.443 56.449L3.27 56.449L3.27 60.066L4.526 60.066Q5.79 60.066 6.361 59.597Q6.933 59.128 6.933 58.212L6.933 58.212Q6.933 57.251 6.323 56.85Q5.714 56.449 4.443 56.449Z"/><path fill="#643c8e" transform="translate(279.051 0)" d="M7.72 64.464L7.72 66L1.453 66L1.453 54.935L7.72 54.935L7.72 56.464L3.27 56.464L3.27 59.469L7.44 59.469L7.44 60.99L3.27 60.99L3.27 64.464L7.72 64.464Z"/></svg>